<?xml version="1.0" encoding="UTF-8" standalone="no"?>
<!-- Created with Inkscape (http://www.inkscape.org/) -->

<svg
   width="50.966057mm"
   height="69.329559mm"
   viewBox="0 0 50.966057 69.329559"
   version="1.1"
   id="svg1"
   xml:space="preserve"
   xmlns="http://www.w3.org/2000/svg"
   xmlns:svg="http://www.w3.org/2000/svg"><defs
     id="defs1" /><g
     id="layer1"
     transform="translate(-67.019076,-55.8277)"><path
       style="fill:#ffb300;fill-opacity:1;stroke-width:0.264583"
       d="m 90.630836,77.828823 c 9.834104,-3.023892 18.837734,-0.794059 20.717744,4.338332 3.95311,10.219282 1.7171,18.800445 -2.31086,26.817945 -2.95283,5.87748 -8.67053,10.61227 -14.761661,13.09462 -6.899923,2.81197 -15.818383,4.70778 -22.326616,1.08025 -2.946309,-1.6422 -4.712792,-5.67288 -4.899935,-8.85374 -0.25561,-9.99423 1.138571,-11.38592 2.686502,-14.16598 5.115103,-1.099773 5.996549,-2.310831 9.998435,-5.312247 l 7.769807,1.4166 -1.83151,-7.082994 c 3.785665,-5.040327 4.875848,-5.16438 4.958094,-11.332786 z"
       id="path4" /><rect
       style="fill:#4b8b3b;fill-opacity:1;stroke-width:0.264583"
       id="rect4"
       width="1.7529511"
       height="4.1319561"
       x="129.00485"
       y="24.469278"
       transform="rotate(24.132381)" /><path
       style="fill:#4b8b3b;fill-opacity:1;stroke-width:0.264583"
       d="m 108.17407,76.67546 c -1.0935,0.241961 -0.44122,1.622962 -0.11544,2.328495 0.35182,0.761916 1.16964,1.383713 1.99496,1.535825 2.30994,0.425737 5.32455,-0.158009 6.74914,-2.025526 1.83433,-2.404653 1.23326,-6.22153 0.2185,-9.070629 -1.61805,-4.542899 -4.78259,-8.731566 -9.41492,-10.991166 -9.772343,-4.766838 -24.016307,-2.961141 -31.111339,4.767516 -3.5392,3.85527 -5.895619,13.730967 -1.045206,15.665533 4.60124,1.835185 6.948425,-7.15014 10.304493,-10.708465 4.895814,-5.190867 14.556822,-6.984954 21.031722,-3.986662 4.69065,2.172071 9.50956,8.662994 7.65327,13.487337 -0.57979,1.506839 -3.0229,1.879933 -4.59767,1.523797 -1.30094,-0.294208 -1.57316,-2.663939 -1.66751,-2.526055 z"
       id="path7" /></g></svg>
